<?xml version="1.0" encoding="UTF-8"?>
<svg width="66px" height="66px" viewBox="0 0 66 66" version="1.1" xmlns="http://www.w3.org/2000/svg" xmlns:xlink="http://www.w3.org/1999/xlink">
    <!-- Generator: Sketch 49 (51002) - http://www.bohemiancoding.com/sketch -->
    <title>Shape</title>
    <desc>Created with Sketch.</desc>
    <defs></defs>
    <g id="AsDestination-Desktop" stroke="none" stroke-width="1" fill="none" fill-rule="evenodd" transform="translate(7, 0)">
        <g id="10-Sport-Instruction" transform="translate(-412.000000, -388.000000)" fill="#000000" fill-rule="nonzero">
            <g id="Group-6" transform="translate(202.000000, 165.000000)">
                <g id="Group" transform="translate(20.000000, 123.000000)">
                    <g id="Group-3" transform="translate(150.000000, 81.000000)">
                        <g id="Apple">
                            <g id="apple" transform="translate(40.000000, 19.000000)">
                                <path d="M35.0516469,10.0307023 C37.5110687,7.37202743 39.1745975,3.68080684 38.7192569,0 C35.1760752,0.127681595 30.8818395,2.10018113 28.3385686,4.75862967 C26.0587271,7.11213652 24.0627168,10.8735367 24.5954047,14.4821265 C28.5490879,14.7522047 32.5881895,12.6850759 35.0516469,10.0307023 Z M42.5973863,35.4504327 C42.5218325,27.1984436 49.067437,23.2351073 49.3573214,23.0435849 C45.6773806,17.439857 39.9462775,16.6730883 37.905204,16.5866089 C33.025146,16.0693174 28.3899093,19.5708266 25.9123276,19.5708266 C23.4448347,19.5708266 19.6281348,16.6545247 15.580738,16.7328542 C10.2599122,16.821371 5.35721052,19.9500229 2.62449464,24.9085512 C-2.90281499,34.883789 1.20780487,49.6606698 6.5938715,57.751925 C9.22682049,61.7129974 12.3617426,66.1564981 16.4784158,65.9957641 C20.4522765,65.8350302 21.9503492,63.3269018 26.7447646,63.3269018 C31.5411977,63.3269018 32.8841272,65.9957641 37.0803897,65.9153972 C41.3501882,65.8350302 44.0524135,61.8780327 46.6629429,57.904509 C49.6835255,53.3106882 50.9287059,48.8631126 51,48.6385379 C50.9083041,48.5848845 42.6850467,45.3183637 42.5973863,35.4504327 Z" id="Shape"></path>
                            </g>
                        </g>
                    </g>
                </g>
            </g>
        </g>
    </g>
</svg>
